<?xml version="1.0" encoding="UTF-8"?>
<svg width="25" height="25" viewBox="0 0 25 25" fill="none" xmlns="http://www.w3.org/2000/svg">
<path fill-rule="evenodd" clip-rule="evenodd" d="M4.8539 3.70354C5.57836 2.92604 6.60509 2.49805 7.79942 2.49805H13.5876C14.7844 2.49805 15.8117 2.92572 16.536 3.70377C17.2548 4.47577 17.6195 5.53193 17.6195 6.69724V21.248C17.6195 21.6623 17.2837 21.998 16.8695 21.998C16.4553 21.998 16.1195 21.6623 16.1195 21.248V6.69724C16.1195 5.84168 15.8547 5.17324 15.4382 4.72586C15.0273 4.28454 14.4137 3.99805 13.5876 3.99805H7.79942C6.97678 3.99805 6.36307 4.28422 5.95134 4.7261C5.53412 5.17386 5.26855 5.84244 5.26855 6.69724V21.248C5.26855 21.6623 4.93277 21.998 4.51855 21.998C4.10434 21.998 3.76855 21.6623 3.76855 21.248V6.69724C3.76855 5.53117 4.13493 4.47515 4.8539 3.70354Z" fill="#000000"></path>
<path fill-rule="evenodd" clip-rule="evenodd" d="M2.50781 21.248C2.50781 20.8338 2.8436 20.498 3.25781 20.498H18.1326C18.5468 20.498 18.8826 20.8338 18.8826 21.248C18.8826 21.6623 18.5468 21.998 18.1326 21.998H3.25781C2.8436 21.998 2.50781 21.6623 2.50781 21.248Z" fill="#000000"></path>
<path fill-rule="evenodd" clip-rule="evenodd" d="M18.8647 6.35932C19.1575 6.06643 19.6324 6.06643 19.9253 6.35932L21.774 8.20797C21.9146 8.34862 21.9936 8.53938 21.9936 8.7383V16.2701C21.9936 17.307 21.1539 18.1468 20.1169 18.1468C19.0814 18.1468 18.2402 17.3074 18.2402 16.2701V14.8379C18.2402 14.6303 18.071 14.4612 17.8635 14.4612H16.8711C16.4569 14.4612 16.1211 14.1254 16.1211 13.7112C16.1211 13.2969 16.4569 12.9612 16.8711 12.9612H17.8635C18.8995 12.9612 19.7402 13.8019 19.7402 14.8379V16.2701C19.7402 16.4781 19.909 16.6468 20.1169 16.6468C20.3254 16.6468 20.4936 16.4786 20.4936 16.2701V9.04896L18.8647 7.41998C18.5718 7.12709 18.5718 6.65221 18.8647 6.35932Z" fill="#000000"></path>
<path fill-rule="evenodd" clip-rule="evenodd" d="M8.71094 17.7451C8.71094 17.3309 9.04672 16.9951 9.46094 16.9951H11.9342C12.3484 16.9951 12.6842 17.3309 12.6842 17.7451C12.6842 18.1593 12.3484 18.4951 11.9342 18.4951H9.46094C9.04672 18.4951 8.71094 18.1593 8.71094 17.7451Z" fill="#000000"></path>
<path fill-rule="evenodd" clip-rule="evenodd" d="M7.07318 6.61267C7.472 6.18504 8.02841 5.96191 8.64425 5.96191H12.7444C13.3611 5.96191 13.918 6.18469 14.3169 6.61309C14.7102 7.03545 14.8945 7.59713 14.8945 8.18305V10.5104C14.8945 11.0963 14.7102 11.658 14.3169 12.0804C13.918 12.5088 13.3611 12.7315 12.7444 12.7315H8.64425C8.02751 12.7315 7.47064 12.5088 7.0717 12.0804C6.67838 11.658 6.49414 11.0963 6.49414 10.5104V8.18305C6.49414 7.59607 6.67974 7.03452 7.07318 6.61267ZM8.17013 7.63575C8.07854 7.73396 7.99414 7.90798 7.99414 8.18305V10.5104C7.99414 10.7865 8.07845 10.9604 8.16942 11.0581C8.25478 11.1498 8.39796 11.2315 8.64425 11.2315H12.7444C12.9906 11.2315 13.1338 11.1498 13.2192 11.0581C13.3102 10.9604 13.3945 10.7865 13.3945 10.5104V8.18305C13.3945 7.90691 13.3102 7.73303 13.2192 7.63534C13.1338 7.54368 12.9906 7.46191 12.7444 7.46191H8.64425C8.39998 7.46191 8.25633 7.54333 8.17013 7.63575Z" fill="#000000"></path>
<path fill-rule="evenodd" clip-rule="evenodd" d="M11.5381 8.74227C11.9298 8.87718 12.1379 9.30402 12.003 9.69565L11.1312 12.2264C10.9963 12.618 10.5694 12.8261 10.1778 12.6912C9.78618 12.5563 9.57807 12.1294 9.71297 11.7378L10.5848 9.2071C10.7197 8.81547 11.1465 8.60736 11.5381 8.74227Z" fill="#000000"></path>
</svg>