<?xml version="1.0" encoding="UTF-8"?>
<svg width="25" height="24" viewBox="0 0 25 24" fill="none" xmlns="http://www.w3.org/2000/svg">
<path d="M13.0063 21.5663C11.5636 21.5174 10.1291 21.3275 8.72333 20.9993C7.80669 20.837 6.87573 20.77 5.94531 20.7993C5.7464 20.7993 5.55563 20.7202 5.41498 20.5796C5.27433 20.4389 5.19531 20.2482 5.19531 20.0493C5.19531 19.8503 5.27433 19.6596 5.41498 19.5189C5.55563 19.3783 5.7464 19.2993 5.94531 19.2993C6.95015 19.2705 7.95531 19.3438 8.94531 19.5183C11.4623 20.0183 13.5743 20.4333 15.8323 19.5553C17.3046 18.8785 18.6117 17.8889 19.6624 16.6553L19.8503 16.4673C20.0047 16.3115 20.0912 16.101 20.0912 15.8818C20.0912 15.6625 20.0047 15.4521 19.8503 15.2963C19.7111 15.1568 19.5261 15.0723 19.3295 15.0584C19.1329 15.0444 18.9379 15.1019 18.7803 15.2203C18.5403 15.4013 18.2983 15.5993 18.0533 15.8013C17.0383 16.8408 15.7009 17.5056 14.2593 17.6873C13.9903 17.6923 13.7164 17.6873 13.4434 17.6733C13.0538 17.6455 12.6626 17.6529 12.2744 17.6953C12.1761 17.7113 12.0756 17.7077 11.9788 17.6845C11.8819 17.6614 11.7907 17.6192 11.7103 17.5604C11.63 17.5016 11.5621 17.4274 11.5107 17.3421C11.4594 17.2568 11.4255 17.1621 11.4111 17.0636C11.3967 16.9651 11.402 16.8647 11.4268 16.7683C11.4516 16.6718 11.4954 16.5813 11.5555 16.502C11.6157 16.4226 11.6911 16.3561 11.7772 16.3062C11.8634 16.2562 11.9586 16.224 12.0573 16.2113C12.5365 16.1544 13.0199 16.142 13.5013 16.1743C13.7413 16.1833 13.9813 16.1943 14.2243 16.1873C15.3232 15.9897 16.331 15.4484 17.1024 14.6413C17.3634 14.4263 17.6224 14.2153 17.8784 14.0213C18.3487 13.6736 18.9329 13.5162 19.5142 13.5805C20.0956 13.6447 20.6312 13.9259 21.0143 14.3678C21.3974 14.8098 21.5997 15.3799 21.5808 15.9645C21.5619 16.5491 21.3232 17.105 20.9124 17.5213L20.7274 17.7083C19.5324 19.0933 18.0468 20.1978 16.3763 20.9433C15.3026 21.3624 14.159 21.5738 13.0063 21.5663Z" fill="#000000"></path>
<path d="M13.5197 17.6814H12.1637C11.9648 17.6814 11.774 17.6024 11.6334 17.4618C11.4927 17.3211 11.4137 17.1304 11.4137 16.9314C11.4137 16.7325 11.4927 16.5418 11.6334 16.4011C11.774 16.2605 11.9648 16.1814 12.1637 16.1814H13.5197C13.6463 16.1913 13.7736 16.1751 13.8937 16.1338C14.0138 16.0924 14.1241 16.0269 14.2179 15.9412C14.3116 15.8555 14.3867 15.7515 14.4386 15.6356C14.4906 15.5197 14.5182 15.3944 14.5197 15.2674C14.5179 15.051 14.4417 14.8418 14.3039 14.675C14.166 14.5082 13.9749 14.3939 13.7627 14.3514C12.7215 14.0562 11.6449 13.9048 10.5627 13.9014C9.18826 14.0475 7.8899 14.6052 6.83768 15.5014L6.35868 15.8254C6.19343 15.9292 5.99426 15.9644 5.80344 15.9237C5.61262 15.883 5.44523 15.7695 5.3367 15.6074C5.22818 15.4453 5.1871 15.2472 5.2222 15.0553C5.25731 14.8634 5.3658 14.6927 5.52469 14.5794L5.99271 14.2624C7.27894 13.1945 8.86025 12.5442 10.5257 12.3984C11.7424 12.4022 12.9531 12.5686 14.1257 12.8934C14.713 13.0265 15.2297 13.3736 15.5751 13.8669C15.9205 14.3603 16.0698 14.9645 15.9939 15.5619C15.918 16.1594 15.6223 16.7071 15.1645 17.0984C14.7067 17.4897 14.1196 17.6965 13.5177 17.6784L13.5197 17.6814Z" fill="#000000"></path>
<path d="M4.685 21.7519H3.66797C3.46906 21.7519 3.27829 21.6728 3.13763 21.5322C2.99698 21.3915 2.91797 21.2008 2.91797 21.0019C2.91797 20.8029 2.99698 20.6122 3.13763 20.4715C3.27829 20.3309 3.46906 20.2519 3.66797 20.2519H4.685C5.024 20.2519 5.19495 20.0589 5.19495 19.6779V15.1369C5.19495 14.7559 5.024 14.5629 4.685 14.5629H3.66797C3.46906 14.5629 3.27829 14.4838 3.13763 14.3432C2.99698 14.2025 2.91797 14.0118 2.91797 13.8129C2.91797 13.6139 2.99698 13.4232 3.13763 13.2825C3.27829 13.1419 3.46906 13.0629 3.66797 13.0629H4.685C4.95583 13.0577 5.22478 13.1083 5.47522 13.2116C5.72566 13.3148 5.95217 13.4685 6.14069 13.663C6.32921 13.8575 6.4757 14.0888 6.57104 14.3423C6.66639 14.5959 6.70857 14.8663 6.69495 15.1369V19.6779C6.70842 19.9484 6.66614 20.2188 6.57074 20.4722C6.47534 20.7257 6.32887 20.9569 6.14038 21.1514C5.95189 21.3459 5.72541 21.4995 5.47504 21.6028C5.22467 21.7061 4.95579 21.7569 4.685 21.7519Z" fill="#000000"></path>
<path d="M14.9448 10.5H13.1538C12.8195 10.4995 12.4991 10.3664 12.2627 10.1301C12.0263 9.89371 11.8933 9.57328 11.8928 9.239V8.539H11.1858C10.8514 8.53873 10.5309 8.40579 10.2944 8.16937C10.058 7.93294 9.92507 7.61236 9.9248 7.278V5.478C9.92507 5.14364 10.058 4.82306 10.2944 4.58663C10.5309 4.3502 10.8514 4.21726 11.1858 4.217H11.8928V3.517C11.8921 3.35094 11.9242 3.18637 11.9873 3.03275C12.0504 2.87912 12.1432 2.73946 12.2603 2.62175C12.3775 2.50405 12.5167 2.41062 12.67 2.34683C12.8233 2.28304 12.9877 2.25013 13.1538 2.25H14.9438C15.2781 2.25026 15.5987 2.3832 15.8351 2.61963C16.0716 2.85606 16.2045 3.17664 16.2048 3.511V4.211H16.9118C17.2461 4.21153 17.5665 4.34455 17.8029 4.58092C18.0392 4.81729 18.1723 5.13772 18.1728 5.472V7.272C18.1725 7.60636 18.0396 7.92694 17.8032 8.16337C17.5667 8.3998 17.2462 8.53274 16.9118 8.533H16.2048V9.233C16.2054 9.39898 16.1734 9.56346 16.1104 9.71702C16.0473 9.87058 15.9547 10.0102 15.8376 10.1279C15.7206 10.2456 15.5815 10.339 15.4283 10.4029C15.2751 10.4667 15.1107 10.4997 14.9448 10.5ZM13.3938 9H14.7058V7.783C14.7058 7.58409 14.7848 7.39332 14.9255 7.25267C15.0661 7.11202 15.2569 7.033 15.4558 7.033H16.6738V5.715H15.4538C15.2549 5.715 15.0641 5.63598 14.9235 5.49533C14.7828 5.35468 14.7038 5.16391 14.7038 4.965V3.75H13.3938V4.965C13.3938 5.16391 13.3148 5.35468 13.1741 5.49533C13.0335 5.63598 12.8427 5.715 12.6438 5.715H11.4258V7.033H12.6438C12.8427 7.033 13.0335 7.11202 13.1741 7.25267C13.3148 7.39332 13.3938 7.58409 13.3938 7.783V9Z" fill="#000000"></path>
</svg>