<?xml version="1.0" encoding="UTF-8"?>
<svg width="25" height="24" viewBox="0 0 25 24" fill="none" xmlns="http://www.w3.org/2000/svg">
<path d="M15.609 21.6381C15.3531 21.6379 15.0993 21.5929 14.859 21.505L9.12698 19.4201C8.9587 19.358 8.77283 19.3641 8.60898 19.4371L5.021 21.0371C4.74798 21.1584 4.44897 21.2095 4.15115 21.1859C3.85334 21.1623 3.56614 21.0646 3.31567 20.9017C3.0652 20.7389 2.8594 20.5161 2.71695 20.2535C2.5745 19.9909 2.49993 19.6968 2.5 19.3981V6.72905C2.50053 6.21301 2.65036 5.70818 2.93143 5.2754C3.21249 4.84263 3.61277 4.5004 4.08398 4.29005L7.99899 2.55107C8.51759 2.31737 9.10719 2.29653 9.64099 2.49306L15.373 4.57805C15.5412 4.64055 15.7272 4.63444 15.891 4.56105L19.479 2.96107C19.752 2.83977 20.051 2.78861 20.3488 2.81224C20.6466 2.83587 20.9338 2.93355 21.1843 3.09639C21.4348 3.25923 21.6406 3.48207 21.783 3.74467C21.9255 4.00727 22.0001 4.3013 22 4.60005V17.2651C21.9995 17.781 21.8497 18.2857 21.5686 18.7184C21.2875 19.151 20.8872 19.493 20.416 19.703L16.501 21.4421C16.2207 21.5694 15.9168 21.6362 15.609 21.6381ZM15.37 20.095C15.5389 20.1558 15.7247 20.1494 15.889 20.0771L19.805 18.337C20.0112 18.2451 20.1864 18.0954 20.3094 17.9061C20.4323 17.7167 20.4979 17.4958 20.498 17.2701V4.60505C20.4983 4.55612 20.4863 4.50791 20.4631 4.46483C20.4399 4.42174 20.4062 4.38519 20.3652 4.3585C20.3242 4.33182 20.2771 4.31586 20.2283 4.31212C20.1795 4.30837 20.1306 4.31694 20.086 4.33705L16.499 5.93107C15.9806 6.16295 15.3922 6.18338 14.859 5.98805L9.125 3.90306C8.9565 3.84183 8.77083 3.84829 8.60699 3.92106L4.69098 5.66105C4.48476 5.75326 4.30964 5.90317 4.18668 6.09266C4.06372 6.28216 3.99818 6.50315 3.99799 6.72905V19.393C3.99759 19.4419 4.00949 19.4901 4.03256 19.5332C4.05564 19.5763 4.08916 19.6129 4.13007 19.6397C4.17097 19.6665 4.21796 19.6826 4.26669 19.6865C4.31543 19.6904 4.36435 19.682 4.409 19.6621L7.99698 18.0621C8.51571 17.8287 9.10531 17.8082 9.63898 18.005L15.37 20.095Z" fill="#000000"></path>
<path d="M8.83203 19.27C8.63312 19.27 8.44235 19.191 8.3017 19.0503C8.16104 18.9097 8.08203 18.7189 8.08203 18.52V3.125C8.08203 2.92609 8.16104 2.73532 8.3017 2.59467C8.44235 2.45401 8.63312 2.375 8.83203 2.375C9.03094 2.375 9.22168 2.45401 9.36234 2.59467C9.50299 2.73532 9.58203 2.92609 9.58203 3.125V18.52C9.58203 18.7189 9.50299 18.9097 9.36234 19.0503C9.22168 19.191 9.03094 19.27 8.83203 19.27Z" fill="#000000"></path>
<path d="M15.6602 21.5998C15.4612 21.5998 15.2705 21.5208 15.1299 21.3802C14.9892 21.2395 14.9102 21.0487 14.9102 20.8498V5.38281C14.9102 5.1839 14.9892 4.99313 15.1299 4.85248C15.2705 4.71183 15.4612 4.63281 15.6602 4.63281C15.8591 4.63281 16.0498 4.71183 16.1905 4.85248C16.3311 4.99313 16.4102 5.1839 16.4102 5.38281V20.8518C16.4096 21.0504 16.3304 21.2406 16.1898 21.3809C16.0492 21.5211 15.8587 21.5998 15.6602 21.5998Z" fill="#000000"></path>
</svg>