<?xml version="1.0" encoding="UTF-8"?>
<svg width="25" height="24" viewBox="0 0 25 24" fill="none" xmlns="http://www.w3.org/2000/svg">
<path fill-rule="evenodd" clip-rule="evenodd" d="M2.9707 20.9648C2.9707 20.5506 3.30649 20.2148 3.7207 20.2148H21.7207C22.1349 20.2148 22.4707 20.5506 22.4707 20.9648C22.4707 21.3791 22.1349 21.7148 21.7207 21.7148H3.7207C3.30649 21.7148 2.9707 21.3791 2.9707 20.9648Z" fill="#000000"></path>
<path fill-rule="evenodd" clip-rule="evenodd" d="M11.4501 17.4565C11.4495 17.458 11.4492 17.4591 11.4492 17.461V20.9686C11.4492 21.3828 11.1134 21.7186 10.6992 21.7186C10.285 21.7186 9.94922 21.3828 9.94922 20.9686V17.461C9.94922 16.6245 10.6324 15.9414 11.4688 15.9414H13.9733C14.8094 15.9414 15.4919 16.6252 15.4919 17.461V20.9686C15.4919 21.3828 15.1561 21.7186 14.7419 21.7186C14.3277 21.7186 13.9919 21.3828 13.9919 20.9686V17.461C13.9919 17.4591 13.9917 17.458 13.991 17.4564C13.9901 17.4543 13.9882 17.4512 13.985 17.448C13.9818 17.4447 13.9787 17.4429 13.9768 17.4421C13.9755 17.4416 13.9747 17.4414 13.9733 17.4414H11.4688C11.4669 17.4414 11.4658 17.4417 11.4643 17.4423C11.4623 17.4432 11.4592 17.445 11.456 17.4482C11.4528 17.4514 11.451 17.4545 11.4501 17.4565Z" fill="#000000"></path>
<path fill-rule="evenodd" clip-rule="evenodd" d="M6.2408 13.4141C5.86392 13.4141 5.55566 13.7195 5.55566 14.0992V20.9674C5.55566 21.3816 5.21988 21.7174 4.80566 21.7174C4.39145 21.7174 4.05566 21.3816 4.05566 20.9674V14.0992C4.05566 12.8851 5.04146 11.9141 6.2408 11.9141H7.37529C7.7895 11.9141 8.12529 12.2498 8.12529 12.6641C8.12529 13.0783 7.7895 13.4141 7.37529 13.4141H6.2408Z" fill="#000000"></path>
<path fill-rule="evenodd" clip-rule="evenodd" d="M17.3086 12.6641C17.3086 12.2498 17.6444 11.9141 18.0586 11.9141H19.3157C20.515 11.9141 21.5008 12.8851 21.5008 14.0992V20.9674C21.5008 21.3816 21.165 21.7174 20.7508 21.7174C20.3366 21.7174 20.0008 21.3816 20.0008 20.9674V14.0992C20.0008 13.7195 19.6926 13.4141 19.3157 13.4141H18.0586C17.6444 13.4141 17.3086 13.0783 17.3086 12.6641Z" fill="#000000"></path>
<path fill-rule="evenodd" clip-rule="evenodd" d="M11.6345 6.62471C12.3065 6.23432 13.1358 6.23474 13.8079 6.62435L17.7342 8.90714C18.4015 9.29465 18.8112 10.0082 18.8112 10.7779V20.9678C18.8112 21.382 18.4754 21.7178 18.0612 21.7178C17.647 21.7178 17.3112 21.382 17.3112 20.9678V10.7779C17.3112 10.5416 17.1855 10.323 16.9813 10.2045L13.0557 7.92209C13.0556 7.92204 13.0558 7.92215 13.0557 7.92209C12.8483 7.80205 12.5936 7.80233 12.3881 7.92164C12.3881 7.92167 12.3882 7.9216 12.3881 7.92164L8.46122 10.2042C8.25703 10.3227 8.13086 10.5416 8.13086 10.7779V20.9678C8.13086 21.382 7.79507 21.7178 7.38086 21.7178C6.96665 21.7178 6.63086 21.382 6.63086 20.9678V10.7779C6.63086 10.0082 7.04008 9.2949 7.70741 8.9074L11.6345 6.62471Z" fill="#000000"></path>
<path fill-rule="evenodd" clip-rule="evenodd" d="M11.9707 3.03125C11.9707 2.61704 12.3065 2.28125 12.7207 2.28125H15.6708C16.085 2.28125 16.4208 2.61704 16.4208 3.03125V5.31482C16.4208 5.72903 16.085 6.06482 15.6708 6.06482H13.4707V7.08076C13.4707 7.49498 13.1349 7.83076 12.7207 7.83076C12.3065 7.83076 11.9707 7.49498 11.9707 7.08076V3.03125ZM13.4707 4.56482H14.9208V3.78125H13.4707V4.56482Z" fill="#000000"></path>
<path fill-rule="evenodd" clip-rule="evenodd" d="M12.7207 11.1602C13.2787 11.1602 13.7314 11.6124 13.7314 12.1709C13.7314 12.7287 13.2793 13.1817 12.7207 13.1817C12.1621 13.1817 11.7099 12.7287 11.7099 12.1709C11.7099 11.6124 12.1627 11.1602 12.7207 11.1602Z" fill="#000000"></path>
</svg>