<?xml version="1.0" encoding="UTF-8"?>
<svg width="25" height="24" viewBox="0 0 25 24" fill="none" xmlns="http://www.w3.org/2000/svg">
<path d="M17.6487 12.7123C16.8188 12.6973 16.0077 12.463 15.2976 12.0333C14.4153 11.6009 13.7202 10.8626 13.3418 9.95579C12.9634 9.04901 12.9274 8.03561 13.2406 7.10429C13.7492 5.66674 14.7997 4.48497 16.1676 3.81129C17.4643 3.13339 18.8718 2.69311 20.3236 2.51129C20.4699 2.50172 20.6158 2.53563 20.7428 2.60877C20.8699 2.6819 20.9724 2.79099 21.0376 2.92229C21.6058 4.27145 21.9272 5.7116 21.9866 7.17429C22.0888 8.69606 21.5901 10.1972 20.5976 11.3553C20.2306 11.7779 19.7778 12.1175 19.2693 12.3514C18.7608 12.5854 18.2084 12.7084 17.6487 12.7123V12.7123ZM19.8866 4.08529C18.8336 4.29479 17.8148 4.64986 16.8597 5.14029C15.8429 5.62947 15.0568 6.49582 14.6686 7.55529C14.4584 8.16159 14.4835 8.82472 14.7389 9.41343C14.9942 10.0021 15.4613 10.4735 16.0476 10.7343C16.5668 11.1116 17.2087 11.2799 17.8462 11.2058C18.4836 11.1317 19.0699 10.8206 19.4886 10.3343C20.2133 9.47081 20.5721 8.35847 20.4886 7.23429C20.4354 6.16174 20.2328 5.10185 19.8866 4.08529V4.08529Z" fill="#000000"></path>
<path d="M7.77377 16.1143C7.10064 16.1073 6.43904 15.9386 5.84476 15.6223C4.51359 14.8788 3.52646 13.6437 3.09476 12.1813C2.64524 10.7888 2.44781 9.32722 2.51175 7.86533C2.52822 7.71926 2.58712 7.5812 2.68112 7.46818C2.77512 7.35517 2.90011 7.27214 3.04074 7.22933C4.46565 6.89888 5.93821 6.82607 7.38876 7.01433C8.9055 7.17157 10.3004 7.91639 11.2747 9.08933C11.8917 9.85458 12.2093 10.818 12.1684 11.8001C12.1276 12.7822 11.7311 13.716 11.0528 14.4273V14.4273C10.6674 14.936 10.1726 15.3517 9.60507 15.6437C9.03755 15.9357 8.41175 16.0965 7.77377 16.1143ZM3.99374 8.55733C4.0222 9.63138 4.19992 10.6962 4.52176 11.7213C4.83222 12.8065 5.55366 13.7278 6.53275 14.2893C7.09434 14.5993 7.75183 14.687 8.37503 14.5351C8.99823 14.3832 9.54168 14.0029 9.89774 13.4693V13.4693C10.3573 13.0213 10.632 12.4171 10.6676 11.7762C10.7031 11.1354 10.4969 10.5045 10.0898 10.0083C9.35902 9.14778 8.32151 8.60608 7.19772 8.49833C6.13218 8.36883 5.0538 8.38869 3.99374 8.55733V8.55733Z" fill="#000000"></path>
<path d="M13.3287 21.4903C13.1462 21.49 12.9701 21.4233 12.8334 21.3025C12.6966 21.1818 12.6085 21.0153 12.5856 20.8343C11.5656 12.7983 16.1406 8.81331 16.3406 8.64731C16.4927 8.52347 16.6872 8.4641 16.8825 8.48193C17.0778 8.49976 17.2583 8.59337 17.3854 8.74271C17.5125 8.89204 17.5761 9.08522 17.5625 9.28085C17.5489 9.47649 17.4592 9.65901 17.3127 9.78931V9.78931C17.1427 9.93531 13.1636 13.4543 14.0766 20.6453C14.0891 20.743 14.0822 20.8422 14.0564 20.9373C14.0305 21.0323 13.9862 21.1213 13.926 21.1992C13.8657 21.2771 13.7906 21.3424 13.7051 21.3913C13.6196 21.4402 13.5254 21.4718 13.4277 21.4843C13.3948 21.4884 13.3618 21.4904 13.3287 21.4903V21.4903Z" fill="#000000"></path>
<path d="M13.1667 18.7543C12.9828 18.754 12.8055 18.6863 12.6683 18.5639C12.5312 18.4414 12.4437 18.2729 12.4227 18.0903C12.0227 14.5903 8.39269 13.1213 8.35669 13.1073C8.26476 13.0711 8.18082 13.0172 8.10974 12.9486C8.03865 12.88 7.9818 12.798 7.94238 12.7075C7.90296 12.6169 7.88175 12.5194 7.88 12.4206C7.87825 12.3219 7.89601 12.2237 7.93219 12.1318C7.96837 12.0399 8.02227 11.956 8.09088 11.8849C8.15948 11.8138 8.24138 11.7569 8.33197 11.7175C8.42255 11.6781 8.52006 11.6569 8.61883 11.6551C8.7176 11.6534 8.81572 11.6711 8.90765 11.7073C9.09165 11.7803 13.4077 13.5333 13.9127 17.9143C13.9354 18.1119 13.8788 18.3104 13.7552 18.4663C13.6317 18.6221 13.4512 18.7225 13.2537 18.7453C13.2237 18.7523 13.1947 18.7543 13.1667 18.7543Z" fill="#000000"></path>
</svg>