<?xml version="1.0" encoding="UTF-8"?>
<svg width="25" height="24" viewBox="0 0 25 24" fill="none" xmlns="http://www.w3.org/2000/svg">
<path d="M9.83372 18.3927C9.38446 18.4099 8.94639 18.2501 8.61372 17.9477C8.13572 17.5017 7.73371 16.5797 8.54271 14.7247C9.93249 11.9038 12.1241 9.55605 14.8427 7.97566C16.6427 7.04066 17.5867 7.37566 18.0637 7.82466C18.5407 8.27366 18.9417 9.19265 18.1337 11.0477C16.7436 13.8683 14.5521 16.216 11.8337 17.7967C11.2238 18.1511 10.5382 18.3554 9.83372 18.3927ZM9.63371 16.8527C9.68671 16.9007 10.1267 16.9916 11.1337 16.4656C13.5478 15.044 15.4987 12.9539 16.7507 10.4477C17.2067 9.40266 17.0867 8.97165 17.0317 8.92065C16.9767 8.86965 16.5387 8.78065 15.5317 9.30665C13.118 10.7286 11.167 12.8182 9.91371 15.3237C9.45871 16.3697 9.57871 16.8017 9.63371 16.8527Z" fill="#000000"></path>
<path d="M6.18568 17.882C5.98556 17.8823 5.79341 17.8037 5.65079 17.6634C5.50818 17.523 5.42657 17.3321 5.42368 17.132C5.42236 17.0342 5.44046 16.937 5.47694 16.8462C5.51341 16.7554 5.56751 16.6727 5.63615 16.603C5.70478 16.5332 5.78657 16.4778 5.87678 16.4398C5.96698 16.4019 6.06383 16.3823 6.16169 16.382H6.18568C6.38459 16.382 6.57536 16.461 6.71601 16.6017C6.85666 16.7423 6.93568 16.9331 6.93568 17.132C6.93568 17.3309 6.85666 17.5217 6.71601 17.6623C6.57536 17.803 6.38459 17.882 6.18568 17.882ZM3.48569 7.625C3.28568 7.62528 3.09361 7.5467 2.95115 7.4063C2.80869 7.2659 2.72731 7.075 2.72468 6.875C2.72335 6.77715 2.74146 6.68001 2.77793 6.5892C2.8144 6.4984 2.86854 6.41573 2.93717 6.34598C3.00581 6.27623 3.08756 6.22078 3.17777 6.18285C3.26798 6.14492 3.36483 6.12526 3.46268 6.125H3.48569C3.68461 6.125 3.87538 6.20401 4.01603 6.34467C4.15668 6.48532 4.23569 6.67609 4.23569 6.875C4.23569 7.07391 4.15668 7.26468 4.01603 7.40533C3.87538 7.54599 3.68461 7.625 3.48569 7.625Z" fill="#000000"></path>
<path d="M20.5627 21.2471C20.4392 21.2468 20.3162 21.2311 20.1967 21.2001L9.26467 18.3231C9.1694 18.2981 9.08 18.2546 9.00155 18.195C8.9231 18.1354 8.85714 18.061 8.80746 17.9759C8.75778 17.8909 8.72534 17.7969 8.712 17.6993C8.69865 17.6017 8.70465 17.5024 8.72967 17.4071C8.75468 17.3119 8.79824 17.2224 8.85781 17.144C8.91738 17.0655 8.99181 16.9996 9.07687 16.9499C9.16192 16.9003 9.25594 16.8678 9.35354 16.8545C9.45113 16.8411 9.55041 16.8471 9.64568 16.8721L20.4687 19.7211L16.9897 8.79814C16.9293 8.60851 16.9468 8.40267 17.0382 8.22592C17.1297 8.04917 17.2875 7.91597 17.4772 7.85563C17.6668 7.7953 17.8726 7.81276 18.0494 7.90419C18.2262 7.99561 18.3593 8.15351 18.4197 8.34314L21.9327 19.3771C22.0015 19.5926 22.0185 19.8213 21.9822 20.0446C21.9459 20.2678 21.8573 20.4793 21.7238 20.6619C21.5903 20.8445 21.4155 20.9929 21.2137 21.0951C21.0119 21.1974 20.7889 21.2505 20.5627 21.2501V21.2471Z" fill="#000000"></path>
<path d="M15.6155 19.9703C15.4568 19.9704 15.3021 19.9201 15.1738 19.8266C15.0455 19.7332 14.9501 19.6015 14.9014 19.4504C14.8527 19.2993 14.8532 19.1367 14.9028 18.9859C14.9524 18.8351 15.0486 18.704 15.1775 18.6113C15.9324 18.0545 16.6329 17.4273 17.2695 16.7383C17.9387 16.0224 18.5384 15.2446 19.0605 14.4153C19.1679 14.2524 19.3347 14.1377 19.5253 14.0957C19.7159 14.0537 19.9154 14.0877 20.0813 14.1904C20.2473 14.2931 20.3667 14.4565 20.4142 14.6458C20.4616 14.8351 20.4334 15.0355 20.3355 15.2043C19.7618 16.1178 19.1022 16.9743 18.3655 17.7623C17.6618 18.5228 16.8873 19.2146 16.0525 19.8283C15.9256 19.9208 15.7726 19.9706 15.6155 19.9703Z" fill="#000000"></path>
<path d="M3.2511 16.4112C3.10507 16.4114 2.96217 16.369 2.8399 16.2892C2.71764 16.2093 2.62134 16.0955 2.56284 15.9617C2.50433 15.8279 2.48615 15.68 2.51053 15.536C2.53491 15.392 2.60081 15.2583 2.7001 15.1512C3.20577 14.5744 3.82983 14.1133 4.52975 13.7994C5.22968 13.4855 5.98904 13.3262 6.7561 13.3322C6.95502 13.3467 7.14005 13.4395 7.27048 13.5904C7.40091 13.7413 7.46605 13.9378 7.4516 14.1367C7.43714 14.3356 7.34426 14.5206 7.19339 14.6511C7.04252 14.7815 6.84601 14.8467 6.64709 14.8322C6.10532 14.8446 5.57218 14.9706 5.08212 15.2019C4.59207 15.4332 4.156 15.7648 3.80209 16.1752C3.73127 16.2501 3.64583 16.3097 3.55106 16.3503C3.45628 16.3909 3.3542 16.4116 3.2511 16.4112Z" fill="#000000"></path>
<path d="M8.63715 7.90717C8.25424 7.90717 7.87996 7.79362 7.56158 7.58089C7.24321 7.36816 6.99507 7.06579 6.84854 6.71204C6.70201 6.35828 6.66367 5.96901 6.73837 5.59346C6.81307 5.21791 6.99743 4.87296 7.26819 4.6022C7.53894 4.33145 7.88391 4.14706 8.25946 4.07236C8.63501 3.99766 9.02426 4.03599 9.37802 4.18253C9.73178 4.32906 10.0342 4.5772 10.2469 4.89557C10.4596 5.21394 10.5732 5.58826 10.5732 5.97116C10.5729 6.48454 10.3688 6.97682 10.0058 7.33983C9.64282 7.70284 9.15052 7.9069 8.63715 7.90717ZM8.63715 5.53616C8.55087 5.53616 8.46656 5.56176 8.39484 5.60971C8.32311 5.65766 8.26722 5.72582 8.23425 5.80554C8.20128 5.88527 8.19272 5.97298 8.20963 6.05759C8.22653 6.14219 8.26815 6.21987 8.32922 6.28081C8.3903 6.34174 8.46806 6.38319 8.5527 6.3999C8.63735 6.41661 8.72507 6.40783 8.80472 6.37468C8.88437 6.34153 8.95236 6.28548 9.00015 6.21365C9.04794 6.14182 9.07335 6.05744 9.07315 5.97116C9.07315 5.91395 9.06187 5.8573 9.03995 5.80446C9.01802 5.75162 8.9859 5.70361 8.9454 5.66321C8.9049 5.6228 8.85682 5.59079 8.80392 5.56898C8.75103 5.54718 8.69436 5.53603 8.63715 5.53616Z" fill="#000000"></path>
<path d="M12.9814 13.4324C12.8812 13.4324 12.7819 13.4123 12.6895 13.3733C12.5971 13.3343 12.5134 13.2772 12.4434 13.2054C11.4555 12.2922 10.2468 11.6519 8.93637 11.3475C7.6259 11.0431 6.25876 11.0851 4.96945 11.4694C4.87365 11.5001 4.77265 11.5113 4.67245 11.5022C4.57225 11.4931 4.47493 11.4639 4.38623 11.4164C4.29753 11.3689 4.21927 11.3041 4.15616 11.2257C4.09304 11.1474 4.04634 11.0571 4.01883 10.9604C3.99131 10.8636 3.98355 10.7623 3.996 10.6624C4.00845 10.5626 4.04086 10.4663 4.09131 10.3792C4.14175 10.2922 4.20918 10.2162 4.28961 10.1557C4.37004 10.0953 4.4618 10.0516 4.55945 10.0274C6.10948 9.56971 7.75232 9.52581 9.32458 9.90001C10.8969 10.2742 12.3438 11.0535 13.5215 12.1604C13.6236 12.2664 13.6923 12.4002 13.7191 12.545C13.7458 12.6898 13.7294 12.8393 13.6718 12.9748C13.6143 13.1104 13.5182 13.226 13.3954 13.3074C13.2727 13.3887 13.1287 13.4322 12.9814 13.4324Z" fill="#000000"></path>
<path d="M14.3059 9.91685C14.1828 9.91718 14.0616 9.88716 13.9529 9.82942C13.8442 9.77168 13.7515 9.68802 13.6829 9.58586C12.9883 8.64705 12.5981 7.51791 12.5648 6.35055C12.5316 5.18319 12.8569 4.03368 13.4969 3.05685C13.6141 2.89683 13.7899 2.78975 13.9858 2.75905C14.1818 2.72834 14.382 2.77651 14.5425 2.893C14.703 3.0095 14.8108 3.18484 14.8424 3.38066C14.874 3.57647 14.8267 3.77681 14.7109 3.93785C14.2558 4.66724 14.0328 5.51757 14.0714 6.37642C14.11 7.23526 14.4083 8.06218 14.9269 8.74785C15.0028 8.86061 15.0467 8.99192 15.0538 9.1277C15.0609 9.26348 15.031 9.39863 14.9672 9.5187C14.9034 9.63878 14.8082 9.73925 14.6917 9.80938C14.5752 9.87951 14.4418 9.91666 14.3059 9.91685Z" fill="#000000"></path>
</svg>