<?xml version="1.0" encoding="UTF-8"?>
<svg width="25" height="24" viewBox="0 0 25 24" fill="none" xmlns="http://www.w3.org/2000/svg">
<path fill-rule="evenodd" clip-rule="evenodd" d="M12.4004 3.75C7.84271 3.75 4.15039 7.44232 4.15039 12C4.15039 13.3745 4.48949 14.6752 5.08536 15.8046C5.27864 16.171 5.13833 16.6247 4.77197 16.8179C4.40561 17.0112 3.95194 16.8709 3.75866 16.5046C3.05075 15.1627 2.65039 13.6222 2.65039 12C2.65039 6.61389 7.01429 2.25 12.4004 2.25C17.7865 2.25 22.1504 6.61389 22.1504 12C22.1504 13.6312 21.7504 15.1823 21.0314 16.5357C20.837 16.9014 20.383 17.0405 20.0172 16.8461C19.6514 16.6518 19.5124 16.1977 19.7067 15.8319C20.311 14.6945 20.6504 13.385 20.6504 12C20.6504 7.44232 16.9581 3.75 12.4004 3.75Z" fill="#000000"></path>
<path fill-rule="evenodd" clip-rule="evenodd" d="M12.3707 7.77734C10.9641 7.77734 9.82422 8.91687 9.82422 10.3228C9.82422 11.7287 10.9641 12.8683 12.3707 12.8683C13.776 12.8683 14.9161 11.7289 14.9161 10.3228C14.9161 8.91673 13.776 7.77734 12.3707 7.77734ZM8.32422 10.3228C8.32422 8.08787 10.1363 6.27734 12.3707 6.27734C14.6042 6.27734 16.4161 8.08801 16.4161 10.3228C16.4161 12.5576 14.6042 14.3683 12.3707 14.3683C10.1363 14.3683 8.32422 12.5577 8.32422 10.3228Z" fill="#000000"></path>
<path fill-rule="evenodd" clip-rule="evenodd" d="M8.09242 19.0311C9.33941 19.8018 10.8177 20.2492 12.399 20.2492C13.9622 20.2492 15.4242 19.8099 16.6698 19.0531C16.5244 18.5729 16.2278 18.0949 15.7297 17.7027C15.0759 17.1881 14.0171 16.7773 12.3698 16.7773C10.7432 16.7773 9.69013 17.1851 9.03615 17.6968C8.53897 18.0858 8.2408 18.5587 8.09242 19.0311ZM8.11184 16.5154C9.09002 15.7501 10.4937 15.2773 12.3698 15.2773C14.2641 15.2773 15.6766 15.752 16.6575 16.5241C17.6409 17.2982 18.1321 18.327 18.2517 19.3133C18.2852 19.5898 18.1627 19.8621 17.9336 20.0205C16.3638 21.1056 14.455 21.7492 12.399 21.7492C10.3231 21.7492 8.39245 21.0956 6.81994 19.9874C6.5926 19.8272 6.47258 19.5544 6.50812 19.2785C6.63405 18.3011 7.13188 17.2822 8.11184 16.5154Z" fill="#000000"></path>
</svg>